<?xml version="1.0" encoding="utf-8"?>
<!-- Generated by Mocodo 4.2.8 -->
<svg width="352" height="297" viewBox="0 0 352 297" xmlns="http://www.w3.org/2000/svg">
<rect x="0" y="0" width="352" height="297" fill="#f7f7f7" stroke="none" stroke-width="0"/>

<!-- Association AVOIR -->
<g>
	<line x1="162" y1="94" x2="46" y2="94" stroke="#5aae61" stroke-width="2"/>
	<line x1="46" y1="246" x2="46" y2="94" stroke="#5aae61" stroke-width="2"/>
	<g>
		<path d="M59 69 a14 14 90 0 1 14 14 V94 h-54 V83 a14 14 90 0 1 14 -14" fill="#a6dba0" stroke="#a6dba0" stroke-width="0"/>
		<path d="M73 94 v11 a14 14 90 0 1 -14 14 H33 a14 14 90 0 1 -14 -14 V94 H54" fill="#d9f0d3" stroke="#d9f0d3" stroke-width="0"/>
		<rect x="19" y="69" width="54" height="50" fill="none" rx="14" stroke="#5aae61" stroke-width="2"/>
		<line x1="19" y1="94" x2="73" y2="94" stroke="#5aae61" stroke-width="1"/>
		<text x="26" y="86.75" fill="#000000" font-family="Verdana" font-size="12">AVOIR</text>
	</g>
	<text x="78" y="111" fill="#762a83" font-family="Verdana" font-size="12">1,N</text>
	<text x="51" y="196" fill="#762a83" font-family="Verdana" font-size="12">0,N</text>
</g>

<!-- Association APPARTENIR -->
<g>
	<line x1="162" y1="94" x2="297" y2="94" stroke="#5aae61" stroke-width="2"/>
	<line x1="297" y1="246" x2="297" y2="94" stroke="#5aae61" stroke-width="2"/>
	<g>
		<path d="M329 69 a14 14 90 0 1 14 14 V94 h-92 V83 a14 14 90 0 1 14 -14" fill="#a6dba0" stroke="#a6dba0" stroke-width="0"/>
		<path d="M343 94 v11 a14 14 90 0 1 -14 14 H265 a14 14 90 0 1 -14 -14 V94 H92" fill="#d9f0d3" stroke="#d9f0d3" stroke-width="0"/>
		<rect x="251" y="69" width="92" height="50" fill="none" rx="14" stroke="#5aae61" stroke-width="2"/>
		<line x1="251" y1="94" x2="343" y2="94" stroke="#5aae61" stroke-width="1"/>
		<text x="258" y="86.75" fill="#000000" font-family="Verdana" font-size="12">APPARTENIR</text>
	</g>
	<text x="224" y="111" fill="#762a83" font-family="Verdana" font-size="12">0,N</text>
	<text x="302" y="196" fill="#762a83" font-family="Verdana" font-size="12">0,N</text>
</g>

<!-- Entity POKEMON -->
<g>
	<g>
		<rect x="105" y="9" width="114" height="25" fill="#c2a5cf" stroke="none" stroke-width="0" opacity="1"/>
		<rect x="105" y="34" width="114" height="145" fill="#e7d4e8" stroke="none" stroke-width="0" opacity="1"/>
		<rect x="105" y="9" width="114" height="170" fill="none" stroke="#9970ab" stroke-width="2" opacity="1"/>
		<line x1="105" y1="34" x2="219" y2="34" stroke="#9970ab" stroke-width="1"/>
	</g>
	<text x="134" y="26.75" fill="#000000" font-family="Verdana" font-size="12">Pokemon</text>
	<text x="110" y="51.8" fill="#000000" font-family="Verdana" font-size="12">code_pokemon</text>
	<line x1="110" y1="54" x2="202" y2="54" stroke="#000000" stroke-width="1"/>
	<text x="110" y="68.8" fill="#000000" font-family="Verdana" font-size="12">nom</text>
	<text x="110" y="85.8" fill="#000000" font-family="Verdana" font-size="12">vie</text>
	<text x="110" y="102.8" fill="#000000" font-family="Verdana" font-size="12">attaque</text>
	<text x="110" y="119.8" fill="#000000" font-family="Verdana" font-size="12">défense</text>
	<text x="110" y="136.8" fill="#000000" font-family="Verdana" font-size="12">attaque_spéciale</text>
	<text x="110" y="153.8" fill="#000000" font-family="Verdana" font-size="12">défense_spéciale</text>
	<text x="110" y="170.8" fill="#000000" font-family="Verdana" font-size="12">vitesse</text>
</g>

<!-- Entity TYPE -->
<g>
	<g>
		<rect x="9" y="204" width="74" height="25" fill="#c2a5cf" stroke="none" stroke-width="0" opacity="1"/>
		<rect x="9" y="229" width="74" height="59" fill="#e7d4e8" stroke="none" stroke-width="0" opacity="1"/>
		<rect x="9" y="204" width="74" height="84" fill="none" stroke="#9970ab" stroke-width="2" opacity="1"/>
		<line x1="9" y1="229" x2="83" y2="229" stroke="#9970ab" stroke-width="1"/>
	</g>
	<text x="31" y="221.75" fill="#000000" font-family="Verdana" font-size="12">Type</text>
	<text x="14" y="246.8" fill="#000000" font-family="Verdana" font-size="12">code_type</text>
	<line x1="14" y1="249" x2="77" y2="249" stroke="#000000" stroke-width="1"/>
	<text x="14" y="263.8" fill="#000000" font-family="Verdana" font-size="12">nom</text>
	<text x="14" y="280.8" fill="#000000" font-family="Verdana" font-size="12">couleur</text>
</g>

<!-- Entity EQUIPE -->
<g>
	<g>
		<rect x="253" y="204" width="88" height="25" fill="#c2a5cf" stroke="none" stroke-width="0" opacity="1"/>
		<rect x="253" y="229" width="88" height="59" fill="#e7d4e8" stroke="none" stroke-width="0" opacity="1"/>
		<rect x="253" y="204" width="88" height="84" fill="none" stroke="#9970ab" stroke-width="2" opacity="1"/>
		<line x1="253" y1="229" x2="341" y2="229" stroke="#9970ab" stroke-width="1"/>
	</g>
	<text x="276" y="221.75" fill="#000000" font-family="Verdana" font-size="12">Equipe</text>
	<text x="258" y="246.8" fill="#000000" font-family="Verdana" font-size="12">code_équipe</text>
	<line x1="258" y1="249" x2="335" y2="249" stroke="#000000" stroke-width="1"/>
	<text x="258" y="263.8" fill="#000000" font-family="Verdana" font-size="12">nom</text>
	<text x="258" y="280.8" fill="#000000" font-family="Verdana" font-size="12">description</text>
</g>
</svg>